<svg width="1282" height="774" viewBox="0 0 1282 774" fill="none" xmlns="http://www.w3.org/2000/svg">
<g filter="url(#filter0_d_68_2761)">
<mask id="path-1-inside-1_68_2761" fill="white">
<path d="M44.8027 63.3135C44.8027 55.5815 51.0707 49.3135 58.8027 49.3135H1222.61C1230.35 49.3135 1236.61 55.5815 1236.61 63.3135V712.019C1236.61 719.751 1230.35 726.019 1222.61 726.019H58.8027C51.0707 726.019 44.8027 719.751 44.8027 712.019V63.3135Z"/>
</mask>
<path d="M44.8027 63.3135C44.8027 55.5815 51.0707 49.3135 58.8027 49.3135H1222.61C1230.35 49.3135 1236.61 55.5815 1236.61 63.3135V712.019C1236.61 719.751 1230.35 726.019 1222.61 726.019H58.8027C51.0707 726.019 44.8027 719.751 44.8027 712.019V63.3135Z" fill="#F6F9FF"/>
<path d="M58.8027 49.3135V49.9782H1222.61V49.3135V48.6487H58.8027V49.3135ZM1236.61 63.3135H1235.95V712.019H1236.61H1237.28V63.3135H1236.61ZM1222.61 726.019V725.354H58.8027V726.019V726.684H1222.61V726.019ZM44.8027 712.019H45.4675V63.3135H44.8027H44.138V712.019H44.8027ZM58.8027 726.019V725.354C51.4379 725.354 45.4675 719.384 45.4675 712.019H44.8027H44.138C44.138 720.118 50.7036 726.684 58.8027 726.684V726.019ZM1236.61 712.019H1235.95C1235.95 719.384 1229.98 725.354 1222.61 725.354V726.019V726.684C1230.71 726.684 1237.28 720.118 1237.28 712.019H1236.61ZM1222.61 49.3135V49.9782C1229.98 49.9782 1235.95 55.9486 1235.95 63.3135H1236.61H1237.28C1237.28 55.2144 1230.71 48.6487 1222.61 48.6487V49.3135ZM58.8027 49.3135V48.6487C50.7036 48.6487 44.138 55.2144 44.138 63.3135H44.8027H45.4675C45.4675 55.9486 51.4379 49.9782 58.8027 49.9782V49.3135Z" fill="url(#paint0_linear_68_2761)" mask="url(#path-1-inside-1_68_2761)"/>
</g>
<path opacity="0.03" d="M157.623 434.379H145.658V422.413H157.623V434.379ZM133.414 434.379H121.448V422.413H133.414V434.379ZM157.623 458.589H145.658V446.623H157.623V458.589ZM109.204 434.379H97.2383V422.413H109.204V434.379ZM133.414 458.589H121.448V446.623H133.414V458.589ZM157.623 482.798H145.658V470.833H157.623V482.798ZM109.204 458.589H97.2383V446.623H109.204V458.589ZM133.414 482.798H121.448V470.833H133.414V482.798ZM157.623 507.008H145.658V495.042H157.623V507.008ZM109.204 482.798H97.2383V470.833H109.204V482.798ZM133.414 507.008H121.448V495.042H133.414V507.008ZM157.623 531.218H145.658V519.252H157.623V531.218ZM109.204 507.008H97.2383V495.042H109.204V507.008ZM133.414 531.218H121.448V519.252H133.414V531.218ZM157.623 555.428H145.658V543.462H157.623V555.428ZM109.204 531.218H97.2383V519.252H109.204V531.218ZM133.414 555.428H121.448V543.462H133.414V555.428ZM157.623 579.637H145.658V567.672H157.623V579.637ZM109.204 555.428H97.2383V543.462H109.204V555.428ZM133.414 579.637H121.448V567.672H133.414V579.637ZM157.623 603.847H145.658V591.603H157.623V603.847ZM109.204 579.637H97.2383V567.672H109.204V579.637ZM133.414 603.847H121.448V591.603H133.414V603.847ZM157.623 627.778H145.658V615.813H157.623V627.778ZM109.204 603.847H97.2383V591.603H109.204V603.847ZM133.414 627.778H121.448V615.813H133.414V627.778ZM157.623 651.988H145.658V640.022H157.623V651.988ZM109.204 627.778H97.2383V615.813H109.204V627.778ZM133.414 651.988H121.448V640.022H133.414V651.988ZM157.623 676.198H145.658V664.232H157.623V676.198ZM109.204 651.988H97.2383V640.022H109.204V651.988ZM133.414 676.198H121.448V664.232H133.414V676.198ZM157.623 700.408H145.658V688.442H157.623V700.408ZM109.204 676.198H97.2383V664.232H109.204V676.198ZM133.414 700.408H121.448V688.442H133.414V700.408ZM109.204 700.408H97.2383V688.442H109.204V700.408ZM341.741 434.379H329.776V422.413H341.741V434.379ZM365.951 458.589H353.985V446.623H365.951V458.589ZM317.532 434.379H305.566V422.413H317.532V434.379ZM341.741 458.589H329.776V446.623H341.741V458.589ZM365.951 482.798H353.985V470.833H365.951V482.798ZM293.322 434.379H281.356V422.413H293.322V434.379ZM317.532 458.589H305.566V446.623H317.532V458.589ZM341.741 482.798H329.776V470.833H341.741V482.798ZM365.951 507.008H353.985V495.042H365.951V507.008ZM269.112 434.379H257.147V422.413H269.112V434.379ZM293.322 458.589H281.356V446.623H293.322V458.589ZM317.532 482.798H305.566V470.833H317.532V482.798ZM341.741 507.008H329.776V495.042H341.741V507.008ZM365.951 531.218H353.985V519.252H365.951V531.218ZM244.903 434.379H232.937V422.413H244.903V434.379ZM269.112 458.589H257.147V446.623H269.112V458.589ZM317.532 507.008H305.566V495.042H317.532V507.008ZM341.741 531.218H329.776V519.252H341.741V531.218ZM365.951 555.428H353.985V543.462H365.951V555.428ZM220.693 434.379H208.727V422.413H220.693V434.379ZM244.903 458.589H232.937V446.623H244.903V458.589ZM269.112 482.798H257.147V470.833H269.112V482.798ZM317.532 531.218H305.566V519.252H317.532V531.218ZM341.741 555.428H329.776V543.462H341.741V555.428ZM365.951 579.637H353.985V567.672H365.951V579.637ZM220.693 458.589H208.727V446.623H220.693V458.589ZM244.903 482.798H232.937V470.833H244.903V482.798ZM269.112 507.008H257.147V495.042H269.112V507.008ZM317.532 555.428H305.566V543.462H317.532V555.428ZM341.741 579.637H329.776V567.672H341.741V579.637ZM365.951 603.847H353.985V591.603H365.951V603.847ZM220.693 482.798H208.727V470.833H220.693V482.798ZM244.903 507.008H232.937V495.042H244.903V507.008ZM269.112 531.218H257.147V519.252H269.112V531.218ZM317.532 579.637H305.566V567.672H317.532V579.637ZM341.741 603.847H329.776V591.603H341.741V603.847ZM365.951 627.778H353.985V615.813H365.951V627.778ZM220.693 507.008H208.727V495.042H220.693V507.008ZM244.903 531.218H232.937V519.252H244.903V531.218ZM317.532 603.847H305.566V591.603H317.532V603.847ZM269.112 555.428H257.147V543.462H269.112V555.428ZM341.741 627.778H329.776V615.813H341.741V627.778ZM365.951 651.988H353.985V640.022H365.951V651.988ZM220.693 531.218H208.727V519.252H220.693V531.218ZM244.903 555.428H232.937V543.462H244.903V555.428ZM317.532 627.778H305.566V615.813H317.532V627.778ZM269.112 579.637H257.147V567.672H269.112V579.637ZM341.741 651.988H329.776V640.022H341.741V651.988ZM365.951 676.198H353.985V664.232H365.951V676.198ZM220.693 555.428H208.727V543.462H220.693V555.428ZM244.903 579.637H232.937V567.672H244.903V579.637ZM317.532 651.988H305.566V640.022H317.532V651.988ZM269.112 603.847H257.147V591.603H269.112V603.847ZM341.741 676.198H329.776V664.232H341.741V676.198ZM365.951 700.408H353.985V688.442H365.951V700.408ZM220.693 579.637H208.727V567.672H220.693V579.637ZM244.903 603.847H232.937V591.603H244.903V603.847ZM317.532 676.198H305.566V664.232H317.532V676.198ZM269.112 627.778H257.147V615.813H269.112V627.778ZM341.741 700.408H329.776V688.442H341.741V700.408ZM220.693 603.847H208.727V591.603H220.693V603.847ZM244.903 627.778H232.937V615.813H244.903V627.778ZM269.112 651.988H257.147V640.022H269.112V651.988ZM317.532 700.408H305.566V688.442H317.532V700.408ZM220.693 627.778H208.727V615.813H220.693V627.778ZM244.903 651.988H232.937V640.022H244.903V651.988ZM269.112 676.198H257.147V664.232H269.112V676.198ZM220.693 651.988H208.727V640.022H220.693V651.988ZM244.903 676.198H232.937V664.232H244.903V676.198ZM269.112 700.408H257.147V688.442H269.112V700.408ZM220.693 676.198H208.727V664.232H220.693V676.198ZM244.903 700.408H232.937V688.442H244.903V700.408ZM220.693 700.408H208.727V688.442H220.693V700.408ZM544.539 434.379H532.573V422.413H544.539V434.379ZM568.748 458.589H556.783V446.623H568.748V458.589ZM520.329 434.379H508.363V422.413H520.329V434.379ZM544.539 458.589H532.573V446.623H544.539V458.589ZM568.748 482.798H556.783V470.833H568.748V482.798ZM496.119 434.379H484.153V422.413H496.119V434.379ZM520.329 458.589H508.363V446.623H520.329V458.589ZM544.539 482.798H532.573V470.833H544.539V482.798ZM568.748 507.008H556.783V495.042H568.748V507.008ZM471.909 434.379H459.944V422.413H471.909V434.379ZM496.119 458.589H484.153V446.623H496.119V458.589ZM520.329 482.798H508.363V470.833H520.329V482.798ZM544.539 507.008H532.573V495.042H544.539V507.008ZM447.7 434.379H435.734V422.413H447.7V434.379ZM471.909 458.589H459.944V446.623H471.909V458.589ZM520.329 507.008H508.363V495.042H520.329V507.008ZM568.748 555.428H556.783V543.462H568.748V555.428ZM447.7 458.589H435.734V446.623H447.7V458.589ZM471.909 482.798H459.944V470.833H471.909V482.798ZM544.539 555.428H532.573V543.462H544.539V555.428ZM568.748 579.637H556.783V567.672H568.748V579.637ZM423.49 458.589H411.524V446.623H423.49V458.589ZM447.7 482.798H435.734V470.833H447.7V482.798ZM471.909 507.008H459.944V495.042H471.909V507.008ZM520.329 555.428H508.363V543.462H520.329V555.428ZM544.539 579.637H532.573V567.672H544.539V579.637ZM568.748 603.847H556.783V591.603H568.748V603.847ZM423.49 482.798H411.524V470.833H423.49V482.798ZM447.7 507.008H435.734V495.042H447.7V507.008ZM471.909 531.218H459.944V519.252H471.909V531.218ZM520.329 579.637H508.363V567.672H520.329V579.637ZM544.539 603.847H532.573V591.603H544.539V603.847ZM568.748 627.778H556.783V615.813H568.748V627.778ZM423.49 507.008H411.524V495.042H423.49V507.008ZM447.7 531.218H435.734V519.252H447.7V531.218ZM520.329 603.847H508.363V591.603H520.329V603.847ZM471.909 555.428H459.944V543.462H471.909V555.428ZM544.539 627.778H532.573V615.813H544.539V627.778ZM568.748 651.988H556.783V640.022H568.748V651.988ZM423.49 531.218H411.524V519.252H423.49V531.218ZM447.7 555.428H435.734V543.462H447.7V555.428ZM520.329 627.778H508.363V615.813H520.329V627.778ZM471.909 579.637H459.944V567.672H471.909V579.637ZM544.539 651.988H532.573V640.022H544.539V651.988ZM568.748 676.198H556.783V664.232H568.748V676.198ZM423.49 555.428H411.524V543.462H423.49V555.428ZM447.7 579.637H435.734V567.672H447.7V579.637ZM520.329 651.988H508.363V640.022H520.329V651.988ZM471.909 603.847H459.944V591.603H471.909V603.847ZM544.539 676.198H532.573V664.232H544.539V676.198ZM568.748 700.408H556.783V688.442H568.748V700.408ZM423.49 579.637H411.524V567.672H423.49V579.637ZM447.7 603.847H435.734V591.603H447.7V603.847ZM520.329 676.198H508.363V664.232H520.329V676.198ZM471.909 627.778H459.944V615.813H471.909V627.778ZM544.539 700.408H532.573V688.442H544.539V700.408ZM423.49 603.847H411.524V591.603H423.49V603.847ZM496.119 676.198H484.153V664.232H496.119V676.198ZM447.7 627.778H435.734V615.813H447.7V627.778ZM471.909 651.988H459.944V640.022H471.909V651.988ZM520.329 700.408H508.363V688.442H520.329V700.408ZM423.49 627.778H411.524V615.813H423.49V627.778ZM447.7 651.988H435.734V640.022H447.7V651.988ZM471.909 676.198H459.944V664.232H471.909V676.198ZM496.119 700.408H484.153V688.442H496.119V700.408ZM423.49 651.988H411.524V640.022H423.49V651.988ZM447.7 676.198H435.734V664.232H447.7V676.198ZM471.909 700.408H459.944V688.442H471.909V700.408ZM423.49 676.198H411.524V664.232H423.49V676.198ZM447.7 700.408H435.734V688.442H447.7V700.408ZM771.545 434.379H759.58V422.413H771.545V434.379ZM747.336 434.379H735.37V422.413H747.336V434.379ZM771.545 458.589H759.58V446.623H771.545V458.589ZM723.126 434.379H711.16V422.413H723.126V434.379ZM747.336 458.589H735.37V446.623H747.336V458.589ZM698.916 434.379H686.95V422.413H698.916V434.379ZM723.126 458.589H711.16V446.623H723.126V458.589ZM674.706 434.379H662.741V422.413H674.706V434.379ZM698.916 458.589H686.95V446.623H698.916V458.589ZM650.497 434.379H638.531V422.413H650.497V434.379ZM674.706 458.589H662.741V446.623H674.706V458.589ZM626.287 434.379H614.321V422.413H626.287V434.379ZM650.497 458.589H638.531V446.623H650.497V458.589ZM674.706 482.798H662.741V470.833H674.706V482.798ZM747.336 555.428H735.37V543.462H747.336V555.428ZM626.287 458.589H614.321V446.623H626.287V458.589ZM650.497 482.798H638.531V470.833H650.497V482.798ZM674.706 507.008H662.741V495.042H674.706V507.008ZM723.126 555.428H711.16V543.462H723.126V555.428ZM747.336 579.637H735.37V567.672H747.336V579.637ZM626.287 482.798H614.321V470.833H626.287V482.798ZM650.497 507.008H638.531V495.042H650.497V507.008ZM674.706 531.218H662.741V519.252H674.706V531.218ZM698.916 555.428H686.95V543.462H698.916V555.428ZM723.126 579.637H711.16V567.672H723.126V579.637ZM626.287 507.008H614.321V495.042H626.287V507.008ZM650.497 531.218H638.531V519.252H650.497V531.218ZM674.706 555.428H662.741V543.462H674.706V555.428ZM698.916 579.637H686.95V567.672H698.916V579.637ZM626.287 531.218H614.321V519.252H626.287V531.218ZM650.497 555.428H638.531V543.462H650.497V555.428ZM674.706 579.637H662.741V567.672H674.706V579.637ZM771.545 676.198H759.58V664.232H771.545V676.198ZM626.287 555.428H614.321V543.462H626.287V555.428ZM650.497 579.637H638.531V567.672H650.497V579.637ZM674.706 603.847H662.741V591.603H674.706V603.847ZM747.336 676.198H735.37V664.232H747.336V676.198ZM771.545 700.408H759.58V688.442H771.545V700.408ZM626.287 579.637H614.321V567.672H626.287V579.637ZM650.497 603.847H638.531V591.603H650.497V603.847ZM723.126 676.198H711.16V664.232H723.126V676.198ZM674.706 627.778H662.741V615.813H674.706V627.778ZM747.336 700.408H735.37V688.442H747.336V700.408ZM626.287 603.847H614.321V591.603H626.287V603.847ZM698.916 676.198H686.95V664.232H698.916V676.198ZM650.497 627.778H638.531V615.813H650.497V627.778ZM674.706 651.988H662.741V640.022H674.706V651.988ZM723.126 700.408H711.16V688.442H723.126V700.408ZM626.287 627.778H614.321V615.813H626.287V627.778ZM650.497 651.988H638.531V640.022H650.497V651.988ZM674.706 676.198H662.741V664.232H674.706V676.198ZM698.916 700.408H686.95V688.442H698.916V700.408ZM626.287 651.988H614.321V640.022H626.287V651.988ZM650.497 676.198H638.531V664.232H650.497V676.198ZM674.706 700.408H662.741V688.442H674.706V700.408ZM626.287 676.198H614.321V664.232H626.287V676.198ZM650.497 700.408H638.531V688.442H650.497V700.408ZM626.287 700.408H614.321V688.442H626.287V700.408ZM950.133 434.379H938.167V422.413H950.133V434.379ZM974.342 458.589H962.377V446.623H974.342V458.589ZM925.923 434.379H913.957V422.413H925.923V434.379ZM950.133 458.589H938.167V446.623H950.133V458.589ZM974.342 482.798H962.377V470.833H974.342V482.798ZM901.713 434.379H889.748V422.413H901.713V434.379ZM925.923 458.589H913.957V446.623H925.923V458.589ZM950.133 482.798H938.167V470.833H950.133V482.798ZM974.342 507.008H962.377V495.042H974.342V507.008ZM877.504 434.379H865.538V422.413H877.504V434.379ZM901.713 458.589H889.748V446.623H901.713V458.589ZM925.923 482.798H913.957V470.833H925.923V482.798ZM950.133 507.008H938.167V495.042H950.133V507.008ZM853.294 434.379H841.328V422.413H853.294V434.379ZM877.504 458.589H865.538V446.623H877.504V458.589ZM925.923 507.008H913.957V495.042H925.923V507.008ZM853.294 458.589H841.328V446.623H853.294V458.589ZM877.504 482.798H865.538V470.833H877.504V482.798ZM950.133 555.428H938.167V543.462H950.133V555.428ZM829.084 458.589H817.118V446.623H829.084V458.589ZM853.294 482.798H841.328V470.833H853.294V482.798ZM877.504 507.008H865.538V495.042H877.504V507.008ZM925.923 555.428H913.957V543.462H925.923V555.428ZM950.133 579.637H938.167V567.672H950.133V579.637ZM974.342 603.847H962.377V591.603H974.342V603.847ZM829.084 482.798H817.118V470.833H829.084V482.798ZM853.294 507.008H841.328V495.042H853.294V507.008ZM877.504 531.218H865.538V519.252H877.504V531.218ZM901.713 555.428H889.748V543.462H901.713V555.428ZM925.923 579.637H913.957V567.672H925.923V579.637ZM950.133 603.847H938.167V591.603H950.133V603.847ZM974.342 627.778H962.377V615.813H974.342V627.778ZM829.084 507.008H817.118V495.042H829.084V507.008ZM853.294 531.218H841.328V519.252H853.294V531.218ZM877.504 555.428H865.538V543.462H877.504V555.428ZM925.923 603.847H913.957V591.603H925.923V603.847ZM901.713 579.637H889.748V567.672H901.713V579.637ZM950.133 627.778H938.167V615.813H950.133V627.778ZM974.342 651.988H962.377V640.022H974.342V651.988ZM829.084 531.218H817.118V519.252H829.084V531.218ZM853.294 555.428H841.328V543.462H853.294V555.428ZM925.923 627.778H913.957V615.813H925.923V627.778ZM877.504 579.637H865.538V567.672H877.504V579.637ZM950.133 651.988H938.167V640.022H950.133V651.988ZM974.342 676.198H962.377V664.232H974.342V676.198ZM925.923 651.988H913.957V640.022H925.923V651.988ZM853.294 579.637H841.328V567.672H853.294V579.637ZM950.133 676.198H938.167V664.232H950.133V676.198ZM877.504 627.778H865.538V615.813H877.504V627.778ZM925.923 676.198H913.957V664.232H925.923V676.198ZM950.133 700.408H938.167V688.442H950.133V700.408ZM853.294 627.778H841.328V615.813H853.294V627.778ZM901.713 676.198H889.748V664.232H901.713V676.198ZM877.504 651.988H865.538V640.022H877.504V651.988ZM925.923 700.408H913.957V688.442H925.923V700.408ZM829.084 627.778H817.118V615.813H829.084V627.778ZM853.294 651.988H841.328V640.022H853.294V651.988ZM877.504 676.198H865.538V664.232H877.504V676.198ZM901.713 700.408H889.748V688.442H901.713V700.408ZM829.084 651.988H817.118V640.022H829.084V651.988ZM853.294 676.198H841.328V664.232H853.294V676.198ZM877.504 700.408H865.538V688.442H877.504V700.408ZM829.084 676.198H817.118V664.232H829.084V676.198ZM853.294 700.408H841.328V688.442H853.294V700.408ZM1177.14 434.379H1165.17V422.413H1177.14V434.379ZM1152.93 434.379H1140.96V422.413H1152.93V434.379ZM1177.14 458.589H1165.17V446.623H1177.14V458.589ZM1128.72 434.379H1116.75V422.413H1128.72V434.379ZM1152.93 458.589H1140.96V446.623H1152.93V458.589ZM1104.51 434.379H1092.54V422.413H1104.51V434.379ZM1128.72 458.589H1116.75V446.623H1128.72V458.589ZM1080.3 434.379H1068.33V422.413H1080.3V434.379ZM1104.51 458.589H1092.54V446.623H1104.51V458.589ZM1128.72 482.798H1116.75V470.833H1128.72V482.798ZM1056.09 434.379H1044.13V422.413H1056.09V434.379ZM1080.3 458.589H1068.33V446.623H1080.3V458.589ZM1104.51 482.798H1092.54V470.833H1104.51V482.798ZM1128.72 507.008H1116.75V495.042H1128.72V507.008ZM1031.88 434.379H1019.92V422.413H1031.88V434.379ZM1056.09 458.589H1044.13V446.623H1056.09V458.589ZM1080.3 482.798H1068.33V470.833H1080.3V482.798ZM1104.51 507.008H1092.54V495.042H1104.51V507.008ZM1128.72 531.218H1116.75V519.252H1128.72V531.218ZM1031.88 458.589H1019.92V446.623H1031.88V458.589ZM1080.3 507.008H1068.33V495.042H1080.3V507.008ZM1104.51 531.218H1092.54V519.252H1104.51V531.218ZM1128.72 555.428H1116.75V543.462H1128.72V555.428ZM1080.3 531.218H1068.33V519.252H1080.3V531.218ZM1104.51 555.428H1092.54V543.462H1104.51V555.428ZM1128.72 579.637H1116.75V567.672H1128.72V579.637ZM1080.3 555.428H1068.33V543.462H1080.3V555.428ZM1104.51 579.637H1092.54V567.672H1104.51V579.637ZM1128.72 603.847H1116.75V591.603H1128.72V603.847ZM1080.3 579.637H1068.33V567.672H1080.3V579.637ZM1104.51 603.847H1092.54V591.603H1104.51V603.847ZM1128.72 627.778H1116.75V615.813H1128.72V627.778ZM1080.3 603.847H1068.33V591.603H1080.3V603.847ZM1104.51 627.778H1092.54V615.813H1104.51V627.778ZM1128.72 651.988H1116.75V640.022H1128.72V651.988ZM1080.3 627.778H1068.33V615.813H1080.3V627.778ZM1104.51 651.988H1092.54V640.022H1104.51V651.988ZM1128.72 676.198H1116.75V664.232H1128.72V676.198ZM1080.3 651.988H1068.33V640.022H1080.3V651.988ZM1104.51 676.198H1092.54V664.232H1104.51V676.198ZM1128.72 700.408H1116.75V688.442H1128.72V700.408ZM1080.3 676.198H1068.33V664.232H1080.3V676.198ZM1104.51 700.408H1092.54V688.442H1104.51V700.408ZM1080.3 700.408H1068.33V688.442H1080.3V700.408Z" fill="#06358D"/>
<g filter="url(#filter1_d_68_2761)">
<mask id="path-4-inside-2_68_2761" fill="white">
<path d="M73.8027 120.002C73.8027 114.479 78.2799 110.002 83.8027 110.002H124.803C130.326 110.002 134.803 114.479 134.803 120.002C134.803 125.525 130.326 130.002 124.803 130.002H83.8027C78.2799 130.002 73.8027 125.525 73.8027 120.002Z"/>
</mask>
<path d="M73.8027 120.002C73.8027 114.479 78.2799 110.002 83.8027 110.002H124.803C130.326 110.002 134.803 114.479 134.803 120.002C134.803 125.525 130.326 130.002 124.803 130.002H83.8027C78.2799 130.002 73.8027 125.525 73.8027 120.002Z" fill="#E7EEFD"/>
<path d="M83.8027 110.002V110.667H124.803V110.002V109.337H83.8027V110.002ZM124.803 130.002V129.337H83.8027V130.002V130.667H124.803V130.002ZM83.8027 130.002V129.337C78.647 129.337 74.4675 125.158 74.4675 120.002H73.8027H73.138C73.138 125.892 77.9128 130.667 83.8027 130.667V130.002ZM134.803 120.002H134.138C134.138 125.158 129.958 129.337 124.803 129.337V130.002V130.667C130.693 130.667 135.467 125.892 135.467 120.002H134.803ZM124.803 110.002V110.667C129.958 110.667 134.138 114.846 134.138 120.002H134.803H135.467C135.467 114.112 130.693 109.337 124.803 109.337V110.002ZM83.8027 110.002V109.337C77.9128 109.337 73.138 114.112 73.138 120.002H73.8027H74.4675C74.4675 114.846 78.647 110.667 83.8027 110.667V110.002Z" fill="url(#paint1_linear_68_2761)" mask="url(#path-4-inside-2_68_2761)"/>
<path d="M87.3418 121.242L88.4141 121.148C88.4648 121.578 88.582 121.932 88.7656 122.209C88.9531 122.482 89.2422 122.705 89.6328 122.877C90.0234 123.045 90.4629 123.129 90.9512 123.129C91.3848 123.129 91.7676 123.064 92.0996 122.936C92.4316 122.807 92.6777 122.631 92.8379 122.408C93.002 122.182 93.084 121.936 93.084 121.67C93.084 121.4 93.0059 121.166 92.8496 120.967C92.6934 120.764 92.4355 120.594 92.0762 120.457C91.8457 120.367 91.3359 120.229 90.5469 120.041C89.7578 119.85 89.2051 119.67 88.8887 119.502C88.4785 119.287 88.1719 119.021 87.9688 118.705C87.7695 118.385 87.6699 118.027 87.6699 117.633C87.6699 117.199 87.793 116.795 88.0391 116.42C88.2852 116.041 88.6445 115.754 89.1172 115.559C89.5898 115.363 90.1152 115.266 90.6934 115.266C91.3301 115.266 91.8906 115.369 92.375 115.576C92.8633 115.779 93.2383 116.08 93.5 116.479C93.7617 116.877 93.9023 117.328 93.9219 117.832L92.832 117.914C92.7734 117.371 92.5742 116.961 92.2344 116.684C91.8984 116.406 91.4004 116.268 90.7402 116.268C90.0527 116.268 89.5508 116.395 89.2344 116.648C88.9219 116.898 88.7656 117.201 88.7656 117.557C88.7656 117.865 88.877 118.119 89.0996 118.318C89.3184 118.518 89.8887 118.723 90.8105 118.934C91.7363 119.141 92.3711 119.322 92.7148 119.479C93.2148 119.709 93.584 120.002 93.8223 120.357C94.0605 120.709 94.1797 121.115 94.1797 121.576C94.1797 122.033 94.0488 122.465 93.7871 122.871C93.5254 123.273 93.1484 123.588 92.6562 123.814C92.168 124.037 91.6172 124.148 91.0039 124.148C90.2266 124.148 89.5742 124.035 89.0469 123.809C88.5234 123.582 88.1113 123.242 87.8105 122.789C87.5137 122.332 87.3574 121.816 87.3418 121.242ZM97.9004 123.059L98.0527 123.99C97.7559 124.053 97.4902 124.084 97.2559 124.084C96.873 124.084 96.5762 124.023 96.3652 123.902C96.1543 123.781 96.0059 123.623 95.9199 123.428C95.834 123.229 95.791 122.812 95.791 122.18V118.6H95.0176V117.779H95.791V116.238L96.8398 115.605V117.779H97.9004V118.6H96.8398V122.238C96.8398 122.539 96.8574 122.732 96.8926 122.818C96.9316 122.904 96.9922 122.973 97.0742 123.023C97.1602 123.074 97.2812 123.1 97.4375 123.1C97.5547 123.1 97.709 123.086 97.9004 123.059ZM103.197 121.998L104.287 122.133C104.115 122.77 103.797 123.264 103.332 123.615C102.867 123.967 102.273 124.143 101.551 124.143C100.641 124.143 99.918 123.863 99.3828 123.305C98.8516 122.742 98.5859 121.955 98.5859 120.943C98.5859 119.896 98.8555 119.084 99.3945 118.506C99.9336 117.928 100.633 117.639 101.492 117.639C102.324 117.639 103.004 117.922 103.531 118.488C104.059 119.055 104.322 119.852 104.322 120.879C104.322 120.941 104.32 121.035 104.316 121.16H99.6758C99.7148 121.844 99.9082 122.367 100.256 122.73C100.604 123.094 101.037 123.275 101.557 123.275C101.943 123.275 102.273 123.174 102.547 122.971C102.82 122.768 103.037 122.443 103.197 121.998ZM99.7344 120.293H103.209C103.162 119.77 103.029 119.377 102.811 119.115C102.475 118.709 102.039 118.506 101.504 118.506C101.02 118.506 100.611 118.668 100.279 118.992C99.9512 119.316 99.7695 119.75 99.7344 120.293ZM105.617 126.387V117.779H106.578V118.588C106.805 118.271 107.061 118.035 107.346 117.879C107.631 117.719 107.977 117.639 108.383 117.639C108.914 117.639 109.383 117.775 109.789 118.049C110.195 118.322 110.502 118.709 110.709 119.209C110.916 119.705 111.02 120.25 111.02 120.844C111.02 121.48 110.904 122.055 110.674 122.566C110.447 123.074 110.115 123.465 109.678 123.738C109.244 124.008 108.787 124.143 108.307 124.143C107.955 124.143 107.639 124.068 107.357 123.92C107.08 123.771 106.852 123.584 106.672 123.357V126.387H105.617ZM106.572 120.926C106.572 121.727 106.734 122.318 107.059 122.701C107.383 123.084 107.775 123.275 108.236 123.275C108.705 123.275 109.105 123.078 109.438 122.684C109.773 122.285 109.941 121.67 109.941 120.838C109.941 120.045 109.777 119.451 109.449 119.057C109.125 118.662 108.736 118.465 108.283 118.465C107.834 118.465 107.436 118.676 107.088 119.098C106.744 119.516 106.572 120.125 106.572 120.926ZM119.316 124.002H118.262V117.281C118.008 117.523 117.674 117.766 117.26 118.008C116.85 118.25 116.48 118.432 116.152 118.553V117.533C116.742 117.256 117.258 116.92 117.699 116.525C118.141 116.131 118.453 115.748 118.637 115.377H119.316V124.002Z" fill="#64748B"/>
</g>
<defs>
<filter id="filter0_d_68_2761" x="-0.000202179" y="7.16947" width="1281.42" height="766.312" filterUnits="userSpaceOnUse" color-interpolation-filters="sRGB">
<feFlood flood-opacity="0" result="BackgroundImageFix"/>
<feColorMatrix in="SourceAlpha" type="matrix" values="0 0 0 0 0 0 0 0 0 0 0 0 0 0 0 0 0 0 127 0" result="hardAlpha"/>
<feOffset dy="2.65893"/>
<feGaussianBlur stdDeviation="22.4015"/>
<feComposite in2="hardAlpha" operator="out"/>
<feColorMatrix type="matrix" values="0 0 0 0 0.615385 0 0 0 0 0.73582 0 0 0 0 1 0 0 0 0.15 0"/>
<feBlend mode="normal" in2="BackgroundImageFix" result="effect1_dropShadow_68_2761"/>
<feBlend mode="normal" in="SourceGraphic" in2="effect1_dropShadow_68_2761" result="shape"/>
</filter>
<filter id="filter1_d_68_2761" x="28.9998" y="67.8579" width="150.606" height="109.606" filterUnits="userSpaceOnUse" color-interpolation-filters="sRGB">
<feFlood flood-opacity="0" result="BackgroundImageFix"/>
<feColorMatrix in="SourceAlpha" type="matrix" values="0 0 0 0 0 0 0 0 0 0 0 0 0 0 0 0 0 0 127 0" result="hardAlpha"/>
<feOffset dy="2.65893"/>
<feGaussianBlur stdDeviation="22.4015"/>
<feComposite in2="hardAlpha" operator="out"/>
<feColorMatrix type="matrix" values="0 0 0 0 0.615385 0 0 0 0 0.73582 0 0 0 0 1 0 0 0 0.15 0"/>
<feBlend mode="normal" in2="BackgroundImageFix" result="effect1_dropShadow_68_2761"/>
<feBlend mode="normal" in="SourceGraphic" in2="effect1_dropShadow_68_2761" result="shape"/>
</filter>
<linearGradient id="paint0_linear_68_2761" x1="238.114" y1="1077.25" x2="1358.52" y2="828.551" gradientUnits="userSpaceOnUse">
<stop offset="0.0288462" stop-color="#A8C3FF"/>
<stop offset="0.375" stop-color="#2563EB"/>
<stop offset="0.831731" stop-color="#A8C3FF"/>
</linearGradient>
<linearGradient id="paint1_linear_68_2761" x1="83.6969" y1="140.383" x2="136.121" y2="120.23" gradientUnits="userSpaceOnUse">
<stop offset="0.0288462" stop-color="#A8C3FF"/>
<stop offset="0.375" stop-color="#2563EB"/>
<stop offset="0.831731" stop-color="#A8C3FF"/>
</linearGradient>
</defs>
</svg>
